<mxfile host="app.diagrams.net" modified="2024-05-02T13:36:00.692Z" agent="Mozilla/5.0 (Windows NT 10.0; Win64; x64) AppleWebKit/537.36 (KHTML, like Gecko) Chrome/124.0.0.0 Safari/537.36" etag="-JFnzrr9_HZb8iiYk6Qs" version="23.0.1" type="device" pages="2">
  <diagram name="Trang-1" id="hAJkIxcACSQHO9LMtvuw">
    <mxGraphModel dx="1290" dy="530" grid="1" gridSize="10" guides="1" tooltips="1" connect="1" arrows="1" fold="1" page="1" pageScale="1" pageWidth="827" pageHeight="1169" math="0" shadow="0">
      <root>
        <mxCell id="0" />
        <mxCell id="1" parent="0" />
        <mxCell id="ghor1XQccJ_fi6GZGH6V-1" value="&lt;font style=&quot;font-size: 14px;&quot;&gt;Nhập số nguyên n. In ra kết quản bình phương của n&lt;/font&gt;" style="text;html=1;strokeColor=none;fillColor=none;align=center;verticalAlign=middle;whiteSpace=wrap;rounded=0;" vertex="1" parent="1">
          <mxGeometry x="180" y="60" width="430" height="30" as="geometry" />
        </mxCell>
        <mxCell id="ghor1XQccJ_fi6GZGH6V-12" style="edgeStyle=orthogonalEdgeStyle;rounded=0;orthogonalLoop=1;jettySize=auto;html=1;exitX=0.5;exitY=1;exitDx=0;exitDy=0;entryX=0.5;entryY=0;entryDx=0;entryDy=0;" edge="1" parent="1" source="ghor1XQccJ_fi6GZGH6V-2" target="ghor1XQccJ_fi6GZGH6V-4">
          <mxGeometry relative="1" as="geometry" />
        </mxCell>
        <mxCell id="ghor1XQccJ_fi6GZGH6V-2" value="" style="ellipse;whiteSpace=wrap;html=1;" vertex="1" parent="1">
          <mxGeometry x="320" y="120" width="120" height="80" as="geometry" />
        </mxCell>
        <mxCell id="ghor1XQccJ_fi6GZGH6V-3" value="START" style="text;html=1;strokeColor=none;fillColor=none;align=center;verticalAlign=middle;whiteSpace=wrap;rounded=0;" vertex="1" parent="1">
          <mxGeometry x="350" y="145" width="60" height="30" as="geometry" />
        </mxCell>
        <mxCell id="ghor1XQccJ_fi6GZGH6V-13" style="edgeStyle=orthogonalEdgeStyle;rounded=0;orthogonalLoop=1;jettySize=auto;html=1;exitX=0.5;exitY=1;exitDx=0;exitDy=0;entryX=0.5;entryY=0;entryDx=0;entryDy=0;" edge="1" parent="1" source="ghor1XQccJ_fi6GZGH6V-4" target="ghor1XQccJ_fi6GZGH6V-6">
          <mxGeometry relative="1" as="geometry" />
        </mxCell>
        <mxCell id="ghor1XQccJ_fi6GZGH6V-4" value="" style="shape=parallelogram;perimeter=parallelogramPerimeter;whiteSpace=wrap;html=1;fixedSize=1;" vertex="1" parent="1">
          <mxGeometry x="320" y="250" width="120" height="60" as="geometry" />
        </mxCell>
        <mxCell id="ghor1XQccJ_fi6GZGH6V-5" value="INPUT n" style="text;html=1;strokeColor=none;fillColor=none;align=center;verticalAlign=middle;whiteSpace=wrap;rounded=0;" vertex="1" parent="1">
          <mxGeometry x="350" y="265" width="60" height="30" as="geometry" />
        </mxCell>
        <mxCell id="ghor1XQccJ_fi6GZGH6V-14" style="edgeStyle=orthogonalEdgeStyle;rounded=0;orthogonalLoop=1;jettySize=auto;html=1;exitX=0.5;exitY=1;exitDx=0;exitDy=0;entryX=0.5;entryY=0;entryDx=0;entryDy=0;" edge="1" parent="1" source="ghor1XQccJ_fi6GZGH6V-6" target="ghor1XQccJ_fi6GZGH6V-8">
          <mxGeometry relative="1" as="geometry" />
        </mxCell>
        <mxCell id="ghor1XQccJ_fi6GZGH6V-6" value="" style="rounded=0;whiteSpace=wrap;html=1;" vertex="1" parent="1">
          <mxGeometry x="320" y="360" width="120" height="60" as="geometry" />
        </mxCell>
        <mxCell id="ghor1XQccJ_fi6GZGH6V-7" value="kq = n * n" style="text;html=1;strokeColor=none;fillColor=none;align=center;verticalAlign=middle;whiteSpace=wrap;rounded=0;" vertex="1" parent="1">
          <mxGeometry x="350" y="375" width="60" height="30" as="geometry" />
        </mxCell>
        <mxCell id="ghor1XQccJ_fi6GZGH6V-15" style="edgeStyle=orthogonalEdgeStyle;rounded=0;orthogonalLoop=1;jettySize=auto;html=1;exitX=0.5;exitY=1;exitDx=0;exitDy=0;entryX=0.5;entryY=0;entryDx=0;entryDy=0;" edge="1" parent="1" source="ghor1XQccJ_fi6GZGH6V-8" target="ghor1XQccJ_fi6GZGH6V-10">
          <mxGeometry relative="1" as="geometry" />
        </mxCell>
        <mxCell id="ghor1XQccJ_fi6GZGH6V-8" value="" style="shape=parallelogram;perimeter=parallelogramPerimeter;whiteSpace=wrap;html=1;fixedSize=1;" vertex="1" parent="1">
          <mxGeometry x="320" y="480" width="120" height="60" as="geometry" />
        </mxCell>
        <mxCell id="ghor1XQccJ_fi6GZGH6V-9" value="OUTPUT kq" style="text;html=1;strokeColor=none;fillColor=none;align=center;verticalAlign=middle;whiteSpace=wrap;rounded=0;" vertex="1" parent="1">
          <mxGeometry x="350" y="495" width="60" height="30" as="geometry" />
        </mxCell>
        <mxCell id="ghor1XQccJ_fi6GZGH6V-10" value="" style="ellipse;whiteSpace=wrap;html=1;" vertex="1" parent="1">
          <mxGeometry x="320" y="600" width="120" height="80" as="geometry" />
        </mxCell>
        <mxCell id="ghor1XQccJ_fi6GZGH6V-11" value="END" style="text;html=1;strokeColor=none;fillColor=none;align=center;verticalAlign=middle;whiteSpace=wrap;rounded=0;" vertex="1" parent="1">
          <mxGeometry x="350" y="625" width="60" height="30" as="geometry" />
        </mxCell>
      </root>
    </mxGraphModel>
  </diagram>
  <diagram id="KXjNkS7D-mw1I6OJXCmV" name="Trang-2">
    <mxGraphModel dx="1290" dy="530" grid="1" gridSize="10" guides="1" tooltips="1" connect="1" arrows="1" fold="1" page="1" pageScale="1" pageWidth="827" pageHeight="1169" math="0" shadow="0">
      <root>
        <mxCell id="0" />
        <mxCell id="1" parent="0" />
        <mxCell id="xi525AmXbQQyFyxDpcal-1" value="&lt;font style=&quot;font-size: 14px;&quot;&gt;Nhập vào chiều dài, chiều rộng của Hình chữ nhật. In ra chu vi, diện tích.&lt;/font&gt;" style="text;html=1;strokeColor=none;fillColor=none;align=center;verticalAlign=middle;whiteSpace=wrap;rounded=0;" vertex="1" parent="1">
          <mxGeometry x="160" y="50" width="530" height="30" as="geometry" />
        </mxCell>
        <mxCell id="hgAP_Dz-W7sOrIBvHezZ-9" style="edgeStyle=orthogonalEdgeStyle;rounded=0;orthogonalLoop=1;jettySize=auto;html=1;entryX=0.5;entryY=0;entryDx=0;entryDy=0;" edge="1" parent="1" source="xi525AmXbQQyFyxDpcal-2" target="xi525AmXbQQyFyxDpcal-4">
          <mxGeometry relative="1" as="geometry" />
        </mxCell>
        <mxCell id="xi525AmXbQQyFyxDpcal-2" value="" style="ellipse;whiteSpace=wrap;html=1;" vertex="1" parent="1">
          <mxGeometry x="360" y="120" width="120" height="80" as="geometry" />
        </mxCell>
        <mxCell id="xi525AmXbQQyFyxDpcal-3" value="START" style="text;html=1;strokeColor=none;fillColor=none;align=center;verticalAlign=middle;whiteSpace=wrap;rounded=0;" vertex="1" parent="1">
          <mxGeometry x="390" y="145" width="60" height="30" as="geometry" />
        </mxCell>
        <mxCell id="xi525AmXbQQyFyxDpcal-4" value="" style="shape=parallelogram;perimeter=parallelogramPerimeter;whiteSpace=wrap;html=1;fixedSize=1;" vertex="1" parent="1">
          <mxGeometry x="360" y="270" width="120" height="60" as="geometry" />
        </mxCell>
        <mxCell id="xi525AmXbQQyFyxDpcal-5" value="INPUT a,b" style="text;html=1;strokeColor=none;fillColor=none;align=center;verticalAlign=middle;whiteSpace=wrap;rounded=0;" vertex="1" parent="1">
          <mxGeometry x="390" y="285" width="60" height="30" as="geometry" />
        </mxCell>
        <mxCell id="xi525AmXbQQyFyxDpcal-6" value="" style="rounded=0;whiteSpace=wrap;html=1;" vertex="1" parent="1">
          <mxGeometry x="240" y="400" width="120" height="60" as="geometry" />
        </mxCell>
        <mxCell id="xi525AmXbQQyFyxDpcal-7" value="" style="rounded=0;whiteSpace=wrap;html=1;" vertex="1" parent="1">
          <mxGeometry x="450" y="400" width="120" height="60" as="geometry" />
        </mxCell>
        <mxCell id="hgAP_Dz-W7sOrIBvHezZ-1" value="S = a * b" style="text;html=1;strokeColor=none;fillColor=none;align=center;verticalAlign=middle;whiteSpace=wrap;rounded=0;" vertex="1" parent="1">
          <mxGeometry x="480" y="415" width="60" height="30" as="geometry" />
        </mxCell>
        <mxCell id="hgAP_Dz-W7sOrIBvHezZ-2" value="P = ( a + b) * 2" style="text;html=1;strokeColor=none;fillColor=none;align=center;verticalAlign=middle;whiteSpace=wrap;rounded=0;" vertex="1" parent="1">
          <mxGeometry x="250" y="415" width="100" height="30" as="geometry" />
        </mxCell>
        <mxCell id="hgAP_Dz-W7sOrIBvHezZ-3" value="" style="shape=parallelogram;perimeter=parallelogramPerimeter;whiteSpace=wrap;html=1;fixedSize=1;" vertex="1" parent="1">
          <mxGeometry x="230" y="520" width="120" height="60" as="geometry" />
        </mxCell>
        <mxCell id="hgAP_Dz-W7sOrIBvHezZ-4" value="" style="shape=parallelogram;perimeter=parallelogramPerimeter;whiteSpace=wrap;html=1;fixedSize=1;" vertex="1" parent="1">
          <mxGeometry x="460" y="520" width="120" height="60" as="geometry" />
        </mxCell>
        <mxCell id="hgAP_Dz-W7sOrIBvHezZ-5" value="OUTPUT P" style="text;html=1;strokeColor=none;fillColor=none;align=center;verticalAlign=middle;whiteSpace=wrap;rounded=0;" vertex="1" parent="1">
          <mxGeometry x="260" y="535" width="60" height="30" as="geometry" />
        </mxCell>
        <mxCell id="hgAP_Dz-W7sOrIBvHezZ-6" value="OUTPUT S" style="text;html=1;strokeColor=none;fillColor=none;align=center;verticalAlign=middle;whiteSpace=wrap;rounded=0;" vertex="1" parent="1">
          <mxGeometry x="490" y="535" width="60" height="30" as="geometry" />
        </mxCell>
        <mxCell id="hgAP_Dz-W7sOrIBvHezZ-7" value="" style="ellipse;whiteSpace=wrap;html=1;" vertex="1" parent="1">
          <mxGeometry x="360" y="680" width="120" height="80" as="geometry" />
        </mxCell>
        <mxCell id="hgAP_Dz-W7sOrIBvHezZ-8" value="END" style="text;html=1;strokeColor=none;fillColor=none;align=center;verticalAlign=middle;whiteSpace=wrap;rounded=0;" vertex="1" parent="1">
          <mxGeometry x="390" y="705" width="60" height="30" as="geometry" />
        </mxCell>
        <mxCell id="hgAP_Dz-W7sOrIBvHezZ-10" value="" style="endArrow=classic;html=1;rounded=0;entryX=0.5;entryY=0;entryDx=0;entryDy=0;" edge="1" parent="1" target="xi525AmXbQQyFyxDpcal-6">
          <mxGeometry width="50" height="50" relative="1" as="geometry">
            <mxPoint x="400" y="330" as="sourcePoint" />
            <mxPoint x="450" y="280" as="targetPoint" />
          </mxGeometry>
        </mxCell>
        <mxCell id="hgAP_Dz-W7sOrIBvHezZ-11" value="" style="endArrow=classic;html=1;rounded=0;entryX=0.58;entryY=-0.073;entryDx=0;entryDy=0;entryPerimeter=0;" edge="1" parent="1" target="xi525AmXbQQyFyxDpcal-7">
          <mxGeometry width="50" height="50" relative="1" as="geometry">
            <mxPoint x="400" y="330" as="sourcePoint" />
            <mxPoint x="450" y="280" as="targetPoint" />
          </mxGeometry>
        </mxCell>
        <mxCell id="hgAP_Dz-W7sOrIBvHezZ-15" value="" style="endArrow=classic;html=1;rounded=0;entryX=0.5;entryY=0;entryDx=0;entryDy=0;" edge="1" parent="1" target="hgAP_Dz-W7sOrIBvHezZ-3">
          <mxGeometry width="50" height="50" relative="1" as="geometry">
            <mxPoint x="290" y="460" as="sourcePoint" />
            <mxPoint x="340" y="410" as="targetPoint" />
          </mxGeometry>
        </mxCell>
        <mxCell id="hgAP_Dz-W7sOrIBvHezZ-16" value="" style="endArrow=classic;html=1;rounded=0;entryX=0.5;entryY=0;entryDx=0;entryDy=0;" edge="1" parent="1" target="hgAP_Dz-W7sOrIBvHezZ-4">
          <mxGeometry width="50" height="50" relative="1" as="geometry">
            <mxPoint x="520" y="460" as="sourcePoint" />
            <mxPoint x="570" y="410" as="targetPoint" />
          </mxGeometry>
        </mxCell>
        <mxCell id="hgAP_Dz-W7sOrIBvHezZ-17" value="" style="endArrow=classic;html=1;rounded=0;entryX=0.383;entryY=0.025;entryDx=0;entryDy=0;entryPerimeter=0;" edge="1" parent="1" target="hgAP_Dz-W7sOrIBvHezZ-7">
          <mxGeometry width="50" height="50" relative="1" as="geometry">
            <mxPoint x="280" y="580" as="sourcePoint" />
            <mxPoint x="330" y="530" as="targetPoint" />
          </mxGeometry>
        </mxCell>
        <mxCell id="hgAP_Dz-W7sOrIBvHezZ-18" value="" style="endArrow=classic;html=1;rounded=0;entryX=0.383;entryY=-0.005;entryDx=0;entryDy=0;entryPerimeter=0;" edge="1" parent="1" target="hgAP_Dz-W7sOrIBvHezZ-7">
          <mxGeometry width="50" height="50" relative="1" as="geometry">
            <mxPoint x="510" y="580" as="sourcePoint" />
            <mxPoint x="560" y="530" as="targetPoint" />
          </mxGeometry>
        </mxCell>
      </root>
    </mxGraphModel>
  </diagram>
</mxfile>
